<svg width="48" height="48" viewBox="0 0 48 48" fill="none" xmlns="http://www.w3.org/2000/svg">
  <!-- Starting step -->
  <rect x="4" y="18" width="10" height="12" rx="2" fill="#646cff" fill-opacity="0.15" stroke="currentColor" stroke-width="2"/>
  
  <!-- Top branch: 2 steps -->
  <rect x="19" y="4" width="10" height="10" rx="2" fill="#646cff" fill-opacity="0.2" stroke="#646cff" stroke-width="2"/>
  <rect x="34" y="4" width="10" height="10" rx="2" fill="#43a047" fill-opacity="0.2" stroke="#43a047" stroke-width="2"/>
  
  <!-- Bottom branch: 2 steps -->
  <rect x="19" y="34" width="10" height="10" rx="2" fill="#646cff" fill-opacity="0.2" stroke="#646cff" stroke-width="2"/>
  <rect x="34" y="34" width="10" height="10" rx="2" fill="#43a047" fill-opacity="0.2" stroke="#43a047" stroke-width="2"/>
  
  <!-- Fork arrows from start -->
  <path d="M14 20 L19 9" stroke="#646cff" stroke-width="2" stroke-linecap="round"/>
  <path d="M14 28 L19 39" stroke="#646cff" stroke-width="2" stroke-linecap="round"/>
  
  <!-- Branch progression arrows -->
  <path d="M29 9 H34" stroke="#646cff" stroke-width="2" stroke-linecap="round"/>
  <path d="M29 39 H34" stroke="#646cff" stroke-width="2" stroke-linecap="round"/>
  
  <!-- Icons -->
  <line x1="7" y1="22" x2="11" y2="22" stroke="currentColor" stroke-width="1.5" stroke-linecap="round"/>
  <line x1="7" y1="26" x2="9" y2="26" stroke="currentColor" stroke-width="1.5" stroke-linecap="round"/>
  <circle cx="24" cy="9" r="1.5" stroke="#646cff" stroke-width="1.5"/>
  <path d="M37 8L38 9L40.5 6.5" stroke="white" stroke-width="1.5" stroke-linecap="round" stroke-linejoin="round"/>
  <circle cx="24" cy="39" r="1.5" stroke="#646cff" stroke-width="1.5"/>
  <path d="M37 38L38 39L40.5 36.5" stroke="white" stroke-width="1.5" stroke-linecap="round" stroke-linejoin="round"/>
</svg>
