<svg width="48" height="48" viewBox="0 0 48 48" fill="none" xmlns="http://www.w3.org/2000/svg">
  <!-- Single 3D Container -->
  
  <defs>
    <g id="container-shape">
      <path d="M24 8L40 16V32L24 40L8 32V16L24 8Z"/>
      <path d="M8 16L24 24M40 16L24 24M24 40V24"/>
    </g>
    <g id="container-ribs">
      <path d="M14 19L14 35M34 19L34 35"/>
    </g>
  </defs>

  <!-- Fill -->
  <path d="M24 8L40 16V32L24 40L8 32V16L24 8Z" fill="#646cff" fill-opacity="0.15" stroke="none"/>

  <!-- Halo -->
  <use href="#container-shape" stroke="white" stroke-width="4" stroke-linejoin="round" fill="none"/>
  <use href="#container-ribs" stroke="white" stroke-width="3.5" fill="none"/>

  <!-- Lines -->
  <path d="M24 8L40 16V32L24 40L8 32V16L24 8Z" stroke="currentColor" stroke-width="2" stroke-linejoin="round" fill="none"/>
  <path d="M8 16L24 24M40 16L24 24M24 40V24" stroke="currentColor" stroke-width="2" stroke-linejoin="round" fill="none"/>
  <use href="#container-ribs" stroke="currentColor" stroke-width="1.5" opacity="0.4" fill="none"/>

</svg>
