<svg width="48" height="48" viewBox="0 0 48 48" fill="none" xmlns="http://www.w3.org/2000/svg">
  <!-- Sun rays -->
  
  <defs>
    <g id="sun-rays">
      <line x1="24" y1="4" x2="24" y2="10"/>
      <line x1="24" y1="38" x2="24" y2="44"/>
      <line x1="4" y1="24" x2="10" y2="24"/>
      <line x1="38" y1="24" x2="44" y2="24"/>
      <line x1="9.86" y1="9.86" x2="14.1" y2="14.1"/>
      <line x1="33.9" y1="33.9" x2="38.14" y2="38.14"/>
      <line x1="9.86" y1="38.14" x2="14.1" y2="33.9"/>
      <line x1="33.9" y1="14.1" x2="38.14" y2="9.86"/>
    </g>
    <circle id="sun-circle" cx="24" cy="24" r="10"/>
  </defs>

  <!-- Fill -->
  <circle cx="24" cy="24" r="10" fill="#646cff" fill-opacity="0.15" stroke="none"/>
  <path d="M26 14C22 14 18 18 18 24C18 30 22 34 26 34C32 34 34 28 34 24C34 20 32 14 26 14Z" fill="#646cff" fill-opacity="0.5" stroke="none"/>

  <!-- Halo -->
  <use href="#sun-rays" stroke="white" stroke-width="4" stroke-linecap="round" fill="none"/>
  <use href="#sun-circle" stroke="white" stroke-width="4" fill="none"/>

  <!-- Lines -->
  <use href="#sun-rays" stroke="#646cff" stroke-width="2" stroke-linecap="round" fill="none"/>
  <use href="#sun-circle" stroke="currentColor" stroke-width="2" fill="none"/>

</svg>
