<svg width="48" height="48" viewBox="0 0 48 48" fill="none" xmlns="http://www.w3.org/2000/svg">
  <!-- Minimal indicator (compress arrows) -->
  
  <defs>
    <g id="min-arrows">
      <path d="M4 22L8 26L4 30"/>
      <path d="M44 22L40 26L44 30"/>
    </g>
    <g id="min-container">
      <path d="M24 8L40 16V32L24 40L8 32V16L24 8Z"/>
      <path d="M8 16L24 24M40 16L24 24M24 40V24"/>
    </g>
    <g id="min-ribs">
      <path d="M14 19L14 35M34 19L34 35"/>
    </g>
  </defs>

  <!-- Fill -->
  <g transform="matrix(0.75 0 0 0.75 6 6)">
    <path d="M24 8L40 16V32L24 40L8 32V16L24 8Z" fill="#646cff" fill-opacity="0.15" stroke="none"/>
  </g>

  <!-- Halo -->
  <use href="#min-arrows" stroke="white" stroke-width="4" stroke-linecap="round" stroke-linejoin="round" fill="none"/>
  <g transform="matrix(0.75 0 0 0.75 6 6)">
    <use href="#min-container" stroke="white" stroke-width="4" stroke-linejoin="round" fill="none"/>
    <use href="#min-ribs" stroke="white" stroke-width="3.5" fill="none"/>
  </g>

  <!-- Lines -->
  <use href="#min-arrows" stroke="#646cff" stroke-width="2" stroke-linecap="round" stroke-linejoin="round" fill="none"/>
  <g transform="matrix(0.75 0 0 0.75 6 6)">
    <path d="M24 8L40 16V32L24 40L8 32V16L24 8Z" stroke="currentColor" stroke-width="2" stroke-linejoin="round" fill="none"/>
    <path d="M8 16L24 24M40 16L24 24M24 40V24" stroke="currentColor" stroke-width="2" stroke-linejoin="round" fill="none"/>
    <use href="#min-ribs" stroke="currentColor" stroke-width="1.5" opacity="0.4" fill="none"/>
  </g>

</svg>
